<?xml version="1.0" encoding="UTF-8"?>
<svg width="159px" height="113px" viewBox="0 0 159 113" version="1.1" xmlns="http://www.w3.org/2000/svg" xmlns:xlink="http://www.w3.org/1999/xlink">
    <title>CSSSHOW</title>
    <defs>
        <linearGradient x1="110.20786%" y1="19.5075487%" x2="-14.3407435%" y2="82.7229047%" id="linearGradient-1">
            <stop stop-color="#FFE53B" offset="0%"></stop>
            <stop stop-color="#FF0A6C" offset="43.7678782%"></stop>
            <stop stop-color="#4A3CDB" offset="100%"></stop>
        </linearGradient>
        <path d="M62.53,100.84 C72.19,100.84 80.41,94.72 82.75,85.96 C82.99,85 82.45,84.4 81.43,84.4 L74.35,84.4 C73.51,84.4 73.03,84.82 72.67,85.6 C70.99,89.26 67.09,91.48 62.53,91.48 C55.09,91.48 50.29,86.5 50.29,79 C50.29,71.5 55.09,66.52 62.53,66.52 C67.09,66.52 70.99,68.74 72.67,72.4 C73.03,73.18 73.51,73.6 74.35,73.6 L81.43,73.6 C82.45,73.6 82.99,72.94 82.75,71.92 C80.29,63.16 72.13,57.16 62.53,57.16 C49.87,57.16 40.69,66.64 40.69,79 C40.69,91.36 49.87,100.84 62.53,100.84 Z M104.45,100.84 C112.49,100.84 119.21,96.64 119.21,88.24 C119.21,79 111.05,76.84 105.05,74.74 C101.57,73.48 99.11,72.28 99.11,69.76 C99.11,68.02 100.49,66.52 103.49,66.52 C106.25,66.52 107.81,67.54 108.29,69.76 C108.47,70.72 108.95,71.2 109.85,71.2 L116.45,71.2 C117.41,71.2 118.01,70.66 117.95,69.64 C117.23,60.94 110.51,57.16 103.49,57.16 C96.35,57.16 89.51,61.36 89.51,69.76 C89.51,77.7925 95.2521875,80.68 100.66707,82.6430078 L101.18159,82.8273008 C101.267113,82.8575955 101.352506,82.887691 101.437743,82.9176042 L101.947109,83.0950309 C102.285185,83.212037 102.62,83.3266667 102.95,83.44 C106.61,84.7 109.61,85.78 109.61,88.24 C109.61,89.98 108.35,91.48 104.45,91.48 C100.91,91.48 99.11,90.4 98.63,88.24 C98.45,87.28 97.97,86.8 97.07,86.8 L90.47,86.8 C89.51,86.8 88.91,87.34 88.97,88.36 C89.69,97.06 96.59,100.84 104.45,100.84 Z M141.15,100.84 C149.19,100.84 155.91,96.64 155.91,88.24 C155.91,79 147.75,76.84 141.75,74.74 C138.27,73.48 135.81,72.28 135.81,69.76 C135.81,68.02 137.19,66.52 140.19,66.52 C142.95,66.52 144.51,67.54 144.99,69.76 C145.17,70.72 145.65,71.2 146.55,71.2 L153.15,71.2 C154.11,71.2 154.71,70.66 154.65,69.64 C153.93,60.94 147.21,57.16 140.19,57.16 C133.05,57.16 126.21,61.36 126.21,69.76 C126.21,77.7925 131.952187,80.68 137.36707,82.6430078 L137.88159,82.8273008 C137.967113,82.8575955 138.052506,82.887691 138.137743,82.9176042 L138.647109,83.0950309 C138.985185,83.212037 139.32,83.3266667 139.65,83.44 C143.31,84.7 146.31,85.78 146.31,88.24 C146.31,89.98 145.05,91.48 141.15,91.48 C137.61,91.48 135.81,90.4 135.33,88.24 C135.15,87.28 134.67,86.8 133.77,86.8 L127.17,86.8 C126.21,86.8 125.61,87.34 125.67,88.36 C126.39,97.06 133.29,100.84 141.15,100.84 Z M44.44,146.672 C50.872,146.672 56.248,143.312 56.248,136.592 C56.248,129.2 49.72,127.472 44.92,125.792 C42.136,124.784 40.168,123.824 40.168,121.808 C40.168,120.416 41.272,119.216 43.672,119.216 C45.88,119.216 47.128,120.032 47.512,121.808 C47.656,122.576 48.04,122.96 48.76,122.96 L54.04,122.96 C54.808,122.96 55.288,122.528 55.24,121.712 C54.664,114.752 49.288,111.728 43.672,111.728 C37.96,111.728 32.488,115.088 32.488,121.808 C32.488,129.152 38.488,131.12 43.24,132.752 C46.168,133.76 48.568,134.624 48.568,136.592 C48.568,137.984 47.56,139.184 44.44,139.184 C41.608,139.184 40.168,138.32 39.784,136.592 C39.64,135.824 39.256,135.44 38.536,135.44 L33.256,135.44 C32.488,135.44 32.008,135.872 32.056,136.688 C32.632,143.648 38.152,146.672 44.44,146.672 Z M66.568,146 C67.336,146 67.768,145.568 67.768,144.8 L67.768,132.416 L77.368,132.416 L77.368,144.8 C77.368,145.568 77.8,146 78.568,146 L83.848,146 C84.616,146 85.048,145.568 85.048,144.8 L85.048,113.6 C85.048,112.832 84.616,112.4 83.848,112.4 L78.568,112.4 C77.8,112.4 77.368,112.832 77.368,113.6 L77.368,125.024 L67.768,125.024 L67.768,113.6 C67.768,112.832 67.336,112.4 66.568,112.4 L61.288,112.4 C60.52,112.4 60.088,112.832 60.088,113.6 L60.088,144.8 C60.088,145.568 60.52,146 61.288,146 L66.568,146 Z M106.84,146.672 C116.488,146.672 124.312,139.088 124.312,129.2 C124.312,119.312 116.488,111.728 106.84,111.728 C97.192,111.728 89.368,119.312 89.368,129.2 C89.368,139.088 97.192,146.672 106.84,146.672 Z M106.84,139.184 C101.368,139.184 97.048,135.2 97.048,129.2 C97.048,123.2 101.368,119.216 106.84,119.216 C112.312,119.216 116.632,123.2 116.632,129.2 C116.632,135.2 112.312,139.184 106.84,139.184 Z M142.216,146 C142.888,146 143.368,145.712 143.56,144.992 L147.35536,131.21312 L151.144,144.992 C151.336,145.712 151.816,146 152.488,146 L158.632,146 C159.304,146 159.784,145.712 159.976,144.992 L168.568,113.744 C168.808,112.88 168.424,112.4 167.56,112.4 L161.944,112.4 C161.224,112.4 160.792,112.784 160.648,113.456 L155.08,135.92 L149.512,113.456 C149.368,112.784 148.936,112.4 148.216,112.4 L143.56,112.4 C142.696,112.4 142.312,112.88 142.552,113.744 L144.07216,119.27264 L139.624,135.92 L134.056,113.456 C133.912,112.784 133.48,112.4 132.76,112.4 L127.144,112.4 C126.28,112.4 125.896,112.88 126.136,113.744 L134.728,144.992 C134.92,145.712 135.4,146 136.072,146 L142.216,146 Z" id="path-2"></path>
        <filter x="-11.7%" y="-20.1%" width="129.3%" height="144.7%" filterUnits="objectBoundingBox" id="filter-3">
            <feOffset dx="4" dy="2" in="SourceAlpha" result="shadowOffsetOuter1"></feOffset>
            <feGaussianBlur stdDeviation="6" in="shadowOffsetOuter1" result="shadowBlurOuter1"></feGaussianBlur>
            <feColorMatrix values="0 0 0 0 0   0 0 0 0 0   0 0 0 0 0  0 0 0 0.28 0" type="matrix" in="shadowBlurOuter1"></feColorMatrix>
        </filter>
    </defs>
    <g id="LOGO" stroke="none" stroke-width="1" fill="none" fill-rule="evenodd">
        <g id="账户图片备份-2" transform="translate(-25.000000, -48.000000)" fill-rule="nonzero">
            <g id="CSSSHOW">
                <use fill="black" fill-opacity="1" filter="url(#filter-3)" xlink:href="#path-2"></use>
                <use fill="#FFFFFF" xlink:href="#path-2"></use>
                <use fill="url(#linearGradient-1)" xlink:href="#path-2"></use>
            </g>
        </g>
    </g>
</svg>